<svg viewBox="0 0 278 115.3945361648469" height="115.3945361648469" width="278" style="width: 278px; height: 115.395px; position: absolute; top: 50%; left: 50%; z-index: 0; cursor: pointer; overflow: visible; transform: translate(-50%, -50%) scale(0.690647);" xmlns="http://www.w3.org/2000/svg"><defs id="SvgjsDefs6906"></defs><g id="SvgjsG6907" featurekey="nRdZyp-0" transform="matrix(1.9078539508921946,0,0,1.9078539508921946,-39.14270118355235,-36.195433101128906)" fill="#000000"><path xmlns="http://www.w3.org/2000/svg" d="M48,49.7c2.6-15.9,14.4-22.6,21.5-25.2c0.9-0.3,0.9-1.5,0.1-1.9c-10-4.9-25-0.9-36.5,10.5c-12,12-15.9,28.2-9.6,38.1    c0.8,1.2,2.2,1.8,3.6,1.4C32.5,71,45.4,65.7,48,49.7z"></path><path xmlns="http://www.w3.org/2000/svg" d="M52,50.3c-1.2,7.7-4.6,13.2-8.6,17.1c-4.3,4.3-9.2,6.7-12.9,8.1c-0.9,0.3-0.9,1.5-0.1,1.9c10,4.9,25,0.9,36.5-10.5    c12-12,15.9-28.2,9.6-38.1c-0.8-1.2-2.2-1.8-3.6-1.4C67.5,29,54.6,34.3,52,50.3z"></path></g><g id="SvgjsG6908" featurekey="Q4qmbg-0" transform="matrix(7.683441898986836,0,0,7.683441898986836,134.9266231946084,-41.100647730170415)" fill="#000000"><path d="M0.4 20 l1.14 -5.6 l4.28 0 l-0.86 -4.28 l-0.68 3.44 l-2.58 0 l1.52 -7.56 l3.48 0 l2.2 10.92 l-5.3 0 l-0.62 3.08 l-2.58 0 z M6.96 20 l-0.46 -2.24 l2.58 0 l0.44 2.24 l-2.56 0 z M12.941 20 l0 -5.2 l-3.18 -8.8 l2.68 0 l3.02 8.36 l0 5.64 l-2.52 0 z M15.981000000000002 13.32 l-1.34 -3.7 l1.3 -3.62 l2.68 0 z"></path></g></svg>