<svg viewBox="0 0 278 112.3945361648469" height="112.3945361648469" width="278" style="width: 278px; height: 112.395px; position: absolute; top: 50%; left: 50%; z-index: 0; cursor: pointer; overflow: visible; transform: translate(-50%, -50%) scale(0.690647);" xmlns="http://www.w3.org/2000/svg"><defs id="SvgjsDefs6901"></defs><g id="SvgjsG6902" featurekey="nRdZyp-0" transform="matrix(1.9078539508921946,0,0,1.9078539508921946,-39.14270118355235,-39.195433101128906)" fill="#000000"><path xmlns="http://www.w3.org/2000/svg" d="M48,49.7c2.6-15.9,14.4-22.6,21.5-25.2c0.9-0.3,0.9-1.5,0.1-1.9c-10-4.9-25-0.9-36.5,10.5c-12,12-15.9,28.2-9.6,38.1    c0.8,1.2,2.2,1.8,3.6,1.4C32.5,71,45.4,65.7,48,49.7z"></path><path xmlns="http://www.w3.org/2000/svg" d="M52,50.3c-1.2,7.7-4.6,13.2-8.6,17.1c-4.3,4.3-9.2,6.7-12.9,8.1c-0.9,0.3-0.9,1.5-0.1,1.9c10,4.9,25,0.9,36.5-10.5    c12-12,15.9-28.2,9.6-38.1c-0.8-1.2-2.2-1.8-3.6-1.4C67.5,29,54.6,34.3,52,50.3z"></path></g><g id="SvgjsG6903" featurekey="Q4qmbg-0" transform="matrix(7.274817624883494,0,0,7.274817624883494,131.32944973083292,-41.468761236769105)" fill="#000000"><path d="M4.38 6.92 c0.02 -0.06 0.06 -0.12 0.14 -0.12 l2.48 0 c0.08 0 0.12 0.06 0.14 0.12 l3.46 12.86 c0.02 0.12 -0.06 0.22 -0.18 0.22 l-2.28 0 c-0.06 0 -0.12 -0.04 -0.14 -0.12 l-0.78 -2.8 l-2.92 0 l-0.76 2.8 c-0.02 0.08 -0.06 0.12 -0.14 0.12 l-2.3 0 c-0.12 0 -0.2 -0.1 -0.18 -0.22 z M4.94 14.6 l1.66 0 l-0.86 -3.02 z M8.02 15.780000000000001 l0.92 3 c0.04 0.12 0.26 0.1 0.2 -0.06 l-3.2 -10.64 c-0.06 -0.26 -0.4 -0.28 -0.46 0 l-3.1 10.64 c-0.06 0.14 0.16 0.2 0.22 0.08 l0.88 -3.02 l4.54 0 z M3.54 15.52 l2.18 -7.36 l2.22 7.36 l-4.4 0 z M14.151 6.9 l1.74 3.36 l1.7 -3.36 c0.06 -0.1 0.08 -0.1 0.16 -0.1 l2.24 0 c0.12 0 0.2 0.12 0.16 0.22 l-2.9 6.74 l0 6.06 c0 0.1 -0.08 0.18 -0.18 0.18 l-2.36 0 c-0.06 0 -0.14 -0.08 -0.14 -0.18 l0 -6.06 l-2.98 -6.7 c-0.04 -0.14 0.02 -0.26 0.16 -0.26 l2.24 0 c0.08 0 0.1 0 0.16 0.1 z M15.991 13.3 l2.5 -5.2 c0.06 -0.12 -0.14 -0.22 -0.22 -0.08 l-2.38 4.98 l-2.44 -4.98 c-0.08 -0.14 -0.3 -0.04 -0.24 0.1 l2.56 5.18 l0 5.52 c0 0.14 0.22 0.16 0.22 0 l0 -5.52 z"></path></g></svg>